<?xml version="1.0" encoding="UTF-8"?>
<svg id="Layer_1" data-name="Layer 1" xmlns="http://www.w3.org/2000/svg" viewBox="0 0 706.92 700.77">
  <defs>
    <style>
      .cls-1 {
        fill: #fff;
        stroke: #000;
        stroke-miterlimit: 10;
      }
    </style>
  </defs>
  <path class="cls-1" d="m344.99.5c-43.87,0-82.37,7.4-118.43,22.19-4.6,1.89-9.49,5.16-12.95,8.75-2.55,2.64,7.09-.43,14.37-1.62,25.04-4.09,100.61-9.36,164.94,8.14,43.67,11.88,88.98,37.1,134.59,102.31,6.09,8.71,81.62,142.6,52.71,195-9.45-2.39-26.97-6.97-31.28-9.24-10.4-5.48-19.78-13.17-30.15-18.65-.64-.34-.85-1.15-.44-1.75.53-.76,1.04-1.5,1.55-2.25.29-.41.79-.61,1.28-.49,10.5,2.59,50.92,11.81,57.07,6.71.42-.35.54-.94.31-1.43-7.04-15.05-29.47-30.1-41.14-41.75-.23-.23-.53-.35-.85-.35-8.68,0-17.4.24-26.08.01-11.99-.31-17.3-3.52-27.73-10.09-19.41-12.23-37.42-25.94-55.93-39.5-29.21-21.41-66.39-20.01-102.42-17.24-.32.03-.64-.13-.86-.36-25.15-25.43-50.58-51.76-81.97-68.2-10.22-5.36-21.2-10.3-30.5-17.11-6.6-4.83-26.89-32.22-34.06-31.07-.21.03-.4.14-.56.28-6.9,6.07-11.79,15.01-20.5,23.28-.09.08-.16.17-.22.28-7.42,13.31-15.94,28.57-24.58,44.06-.21.37-.2.83.01,1.2,5.54,9.46,11.84,32.21,15.12,42.98.07.23,10.45,32.71,13.91,47.11,1.84,7.65,4.18,15.45,5.6,23.2.84,4.55,2.66,27.55,3.35,29.42.28.76-.24,1.58-1.05,1.63-6.64.42-7.9-.32-14.07-1.7-4.81-1.08-23.18-4.36-28.12-5.06-.6-.09-1.06-.59-1.06-1.19v-18.03c0-1.03-1.23-1.61-2-.92-4.33,3.89-6.94,8.64-10.44,13.71-.19.28-.49.47-.83.52-3.58.49-7.89,1.09-12.44,1.71-.24.03-.46.13-.65.3l-.87.78c-.28.25-.43.62-.4,1,.78,10.41,2.31,20.86,3.03,31.23.03.46.32.86.75,1.03,11.44,4.62,23,9.01,34.33,13.88,9.71,4.17,19.81,12.63,29.88,14.9.22.05.42.16.59.32,1.49,1.53,3.17,3.25,4.31,4.42.14.15.24.32.3.52,4.53,15.83,6.16,31.52,11.07,47.07.28.88,1.43,1.14,2.05.46,1.76-1.95,2.2-4.17,2.54-6.53.09-.59.6-1.03,1.2-1.03h4.21c.22,0,.43.05.62.16,18.59,10.58,10.83,44.38,10.39,61.63-.02.8.73,1.43,1.51,1.21,2.73-.75,3.83-3.31,5.89-4.68.2-.13.43-.21.67-.2,11.08.44,2.44,60.88,7.72,72.11,4.27,9.07,12.43,26.76,18.78,24.81.22-.07,4.65-11.73,10.44-8.5,15.19,8.48,11.14,78.36,34.27,68.7.57-.24,1.19.33,1.31.93.49,2.32,1.15,7.26.87,8.46.19-.24.55-.63,1.07-1.16-.35.48-.73.93-1.13,1.34.02-.05.04-.1.06-.17-.13.16-.18.26-.15.27,0,0,0,0,0,0,0,0,0,0,0,0-17.91,17.27-143.38-9.64-221.13-126.32-27.77-41.67-44.71-126.83-45.89-139.85-3.14-34.41-3.19-49.81-1.65-67.89.54-6.34,1.27-14.87,1.24-15.66-.05-1.13-.46-5.08-1.04-5.15-.47-.05-2.9,4.51-2.96,4.73-1.75,6.48-3.17,8.92-4.73,16.02-5.29,23.99-7.11,51.82-7.11,75.5,0,139.41,67.27,250.52,189.15,306.76,47.06,21.72,99.73,33.87,155.34,33.87,199.61,0,361.43-156.65,361.43-349.88S544.6.5,344.99.5Zm13.71,227.83c7.11,2.38,17.94,2.18,24.12,6.41,10.34,7.06,25.63,32.55,29.65,45.63-7.31-2.03-12.68-7.92-18.95-12.25-8.43-5.83-17.65-8.54-26.36-13.36-11.64-6.43-20.75-19.8-25.41-32.7,5.31,0,11.6,4.48,16.95,6.27Z"/>
</svg>